<mxfile host="Electron" modified="2024-01-22T10:21:16.643Z" agent="Mozilla/5.0 (Windows NT 10.0; Win64; x64) AppleWebKit/537.36 (KHTML, like Gecko) draw.io/22.1.2 Chrome/114.0.5735.289 Electron/25.9.4 Safari/537.36" etag="lFi7zFN4CglqqKghi8lW" version="22.1.2" type="device" pages="2">
  <diagram name="Page-1" id="gXKMvmrFsFs9hwFlO_cq">
    <mxGraphModel dx="1480" dy="866" grid="1" gridSize="10" guides="1" tooltips="1" connect="1" arrows="1" fold="1" page="1" pageScale="1" pageWidth="15000" pageHeight="15000" math="0" shadow="0">
      <root>
        <mxCell id="0" />
        <mxCell id="1" parent="0" />
        <mxCell id="_879_frUjRLqUSVxQq9t-3" value="&lt;h1 style=&quot;&quot; class=&quot;template-name-title&quot;&gt;&lt;font style=&quot;font-size: 19px;&quot;&gt;Hospital&amp;nbsp; Management System&lt;/font&gt;&lt;/h1&gt;" style="swimlane;whiteSpace=wrap;html=1;fontStyle=1;fillColor=#b0e3e6;strokeColor=#0e8088;strokeWidth=2;" parent="1" vertex="1">
          <mxGeometry x="7210" y="5330" width="450" height="700" as="geometry" />
        </mxCell>
        <mxCell id="_879_frUjRLqUSVxQq9t-5" value="Login" style="ellipse;whiteSpace=wrap;html=1;fontStyle=1" parent="_879_frUjRLqUSVxQq9t-3" vertex="1">
          <mxGeometry x="30" y="40" width="170" height="50" as="geometry" />
        </mxCell>
        <mxCell id="_879_frUjRLqUSVxQq9t-8" value="Patient Registration" style="ellipse;whiteSpace=wrap;html=1;fontStyle=1" parent="_879_frUjRLqUSVxQq9t-3" vertex="1">
          <mxGeometry x="30" y="110" width="170" height="50" as="geometry" />
        </mxCell>
        <mxCell id="_879_frUjRLqUSVxQq9t-9" value="View Doctor Schedule" style="ellipse;whiteSpace=wrap;html=1;fontStyle=1" parent="_879_frUjRLqUSVxQq9t-3" vertex="1">
          <mxGeometry x="30" y="180" width="170" height="50" as="geometry" />
        </mxCell>
        <mxCell id="_879_frUjRLqUSVxQq9t-10" value="&lt;span&gt;Schedule Appointment:&lt;/span&gt;" style="ellipse;whiteSpace=wrap;html=1;fontStyle=1" parent="_879_frUjRLqUSVxQq9t-3" vertex="1">
          <mxGeometry x="30" y="250" width="170" height="50" as="geometry" />
        </mxCell>
        <mxCell id="94ek_NprEjbLttVScLe3-5" value="Logout" style="ellipse;whiteSpace=wrap;html=1;fontStyle=1" parent="_879_frUjRLqUSVxQq9t-3" vertex="1">
          <mxGeometry x="30" y="600" width="170" height="50" as="geometry" />
        </mxCell>
        <mxCell id="94ek_NprEjbLttVScLe3-6" value="&lt;strong&gt;View Appointment&lt;/strong&gt;" style="ellipse;whiteSpace=wrap;html=1;fontStyle=1" parent="_879_frUjRLqUSVxQq9t-3" vertex="1">
          <mxGeometry x="30" y="390" width="170" height="50" as="geometry" />
        </mxCell>
        <mxCell id="94ek_NprEjbLttVScLe3-7" value="Manage Medical stock" style="ellipse;whiteSpace=wrap;html=1;fontStyle=1" parent="_879_frUjRLqUSVxQq9t-3" vertex="1">
          <mxGeometry x="250" y="460" width="170" height="50" as="geometry" />
        </mxCell>
        <mxCell id="94ek_NprEjbLttVScLe3-8" value="Generate Bill" style="ellipse;whiteSpace=wrap;html=1;fontStyle=1" parent="_879_frUjRLqUSVxQq9t-3" vertex="1">
          <mxGeometry x="250" y="520" width="170" height="50" as="geometry" />
        </mxCell>
        <mxCell id="94ek_NprEjbLttVScLe3-34" value="" style="endArrow=classic;html=1;rounded=0;fillColor=#60a917;strokeColor=#2D7600;strokeWidth=2;entryX=0.077;entryY=0.286;entryDx=0;entryDy=0;entryPerimeter=0;" parent="_879_frUjRLqUSVxQq9t-3" target="94ek_NprEjbLttVScLe3-5" edge="1">
          <mxGeometry width="50" height="50" relative="1" as="geometry">
            <mxPoint x="-130" y="250" as="sourcePoint" />
            <mxPoint x="20" y="610" as="targetPoint" />
            <Array as="points">
              <mxPoint x="-100" y="250" />
              <mxPoint x="-100" y="340" />
              <mxPoint x="-100" y="430" />
              <mxPoint x="-100" y="614" />
            </Array>
          </mxGeometry>
        </mxCell>
        <mxCell id="94ek_NprEjbLttVScLe3-44" value="" style="endArrow=classic;html=1;rounded=0;entryX=1;entryY=0.5;entryDx=0;entryDy=0;strokeWidth=2;fillColor=#e3c800;strokeColor=#B09500;" parent="_879_frUjRLqUSVxQq9t-3" edge="1">
          <mxGeometry width="50" height="50" relative="1" as="geometry">
            <mxPoint x="500" y="70" as="sourcePoint" />
            <mxPoint x="199.99999999997908" y="70" as="targetPoint" />
          </mxGeometry>
        </mxCell>
        <mxCell id="u3z8EmCiYmt38ChqZdmB-3" value="System Maintenance" style="ellipse;whiteSpace=wrap;html=1;fontStyle=1" parent="_879_frUjRLqUSVxQq9t-3" vertex="1">
          <mxGeometry x="240" y="180" width="170" height="50" as="geometry" />
        </mxCell>
        <mxCell id="u3z8EmCiYmt38ChqZdmB-9" value="" style="endArrow=classic;html=1;rounded=0;entryX=0.981;entryY=0.338;entryDx=0;entryDy=0;entryPerimeter=0;strokeWidth=2;fillColor=#e3c800;strokeColor=#B09500;" parent="_879_frUjRLqUSVxQq9t-3" target="94ek_NprEjbLttVScLe3-5" edge="1">
          <mxGeometry width="50" height="50" relative="1" as="geometry">
            <mxPoint x="230" y="590" as="sourcePoint" />
            <mxPoint x="204.1900000000005" y="609.6500000000005" as="targetPoint" />
          </mxGeometry>
        </mxCell>
        <mxCell id="u3z8EmCiYmt38ChqZdmB-12" value="" style="endArrow=classic;html=1;rounded=0;strokeWidth=2;fillColor=#e3c800;strokeColor=#B09500;entryX=0.844;entryY=0.103;entryDx=0;entryDy=0;entryPerimeter=0;" parent="_879_frUjRLqUSVxQq9t-3" target="u3z8EmCiYmt38ChqZdmB-3" edge="1">
          <mxGeometry width="50" height="50" relative="1" as="geometry">
            <mxPoint x="497.96000000000004" y="71.25" as="sourcePoint" />
            <mxPoint x="410" y="198.75" as="targetPoint" />
            <Array as="points" />
          </mxGeometry>
        </mxCell>
        <mxCell id="94ek_NprEjbLttVScLe3-48" value="" style="endArrow=classic;html=1;rounded=0;fillColor=#76608a;strokeColor=#432D57;strokeWidth=2;entryX=1;entryY=0.5;entryDx=0;entryDy=0;" parent="_879_frUjRLqUSVxQq9t-3" target="94ek_NprEjbLttVScLe3-7" edge="1">
          <mxGeometry width="50" height="50" relative="1" as="geometry">
            <mxPoint x="510" y="420" as="sourcePoint" />
            <mxPoint x="410" y="420" as="targetPoint" />
            <Array as="points">
              <mxPoint x="460" y="420" />
            </Array>
          </mxGeometry>
        </mxCell>
        <mxCell id="94ek_NprEjbLttVScLe3-2" value="Upload Lab Report" style="ellipse;whiteSpace=wrap;html=1;fontStyle=1" parent="_879_frUjRLqUSVxQq9t-3" vertex="1">
          <mxGeometry x="250" y="390" width="170" height="50" as="geometry" />
        </mxCell>
        <mxCell id="u3z8EmCiYmt38ChqZdmB-4" value="view Patient Records&amp;nbsp;" style="ellipse;whiteSpace=wrap;html=1;fontStyle=1" parent="_879_frUjRLqUSVxQq9t-3" vertex="1">
          <mxGeometry x="240" y="250" width="170" height="50" as="geometry" />
        </mxCell>
        <mxCell id="-_jx0KuunPsmwEeGjPs3-6" value="" style="endArrow=classic;html=1;rounded=0;entryX=0.927;entryY=0.884;entryDx=0;entryDy=0;entryPerimeter=0;strokeWidth=2;fillColor=#fa6800;strokeColor=#C73500;" parent="_879_frUjRLqUSVxQq9t-3" target="94ek_NprEjbLttVScLe3-5" edge="1">
          <mxGeometry width="50" height="50" relative="1" as="geometry">
            <mxPoint x="520" y="270" as="sourcePoint" />
            <mxPoint x="290" y="310" as="targetPoint" />
            <Array as="points">
              <mxPoint x="520" y="644" />
            </Array>
          </mxGeometry>
        </mxCell>
        <mxCell id="-_jx0KuunPsmwEeGjPs3-8" value="Manage Patient Vitals" style="ellipse;whiteSpace=wrap;html=1;fontStyle=1" parent="_879_frUjRLqUSVxQq9t-3" vertex="1">
          <mxGeometry x="30" y="530" width="170" height="50" as="geometry" />
        </mxCell>
        <mxCell id="-_jx0KuunPsmwEeGjPs3-10" value="File medi claim Report" style="ellipse;whiteSpace=wrap;html=1;fontStyle=1" parent="_879_frUjRLqUSVxQq9t-3" vertex="1">
          <mxGeometry x="30" y="460" width="170" height="50" as="geometry" />
        </mxCell>
        <mxCell id="-_jx0KuunPsmwEeGjPs3-12" value="Suggest / Do Lab Test" style="ellipse;whiteSpace=wrap;html=1;fontStyle=1" parent="_879_frUjRLqUSVxQq9t-3" vertex="1">
          <mxGeometry x="30" y="320" width="170" height="50" as="geometry" />
        </mxCell>
        <mxCell id="AWQm2vI09b2z1ZPZojSG-1" value="Check payment Transcation &amp;amp; detail" style="ellipse;whiteSpace=wrap;html=1;fontStyle=1" parent="_879_frUjRLqUSVxQq9t-3" vertex="1">
          <mxGeometry x="240" y="110" width="170" height="50" as="geometry" />
        </mxCell>
        <mxCell id="PF7BRipgZ3cW-TuT_Z6g-1" value="View Prescribe Test" style="ellipse;whiteSpace=wrap;html=1;fontStyle=1" parent="_879_frUjRLqUSVxQq9t-3" vertex="1">
          <mxGeometry x="250" y="325" width="170" height="50" as="geometry" />
        </mxCell>
        <mxCell id="_879_frUjRLqUSVxQq9t-4" value="&lt;font color=&quot;#b266ff&quot;&gt;Pharmascist&lt;br&gt;&lt;/font&gt;" style="shape=umlActor;verticalLabelPosition=bottom;verticalAlign=top;html=1;outlineConnect=0;fontStyle=1;fillColor=#76608a;fontColor=#ffffff;strokeColor=#432D57;" parent="1" vertex="1">
          <mxGeometry x="7741" y="5720" width="30" height="60" as="geometry" />
        </mxCell>
        <mxCell id="_879_frUjRLqUSVxQq9t-15" value="&lt;font color=&quot;#cc0000&quot;&gt;Doctor&lt;/font&gt;" style="shape=umlActor;verticalLabelPosition=bottom;verticalAlign=top;html=1;outlineConnect=0;fontStyle=1;fillColor=#a20025;fontColor=#ffffff;strokeColor=#6F0000;" parent="1" vertex="1">
          <mxGeometry x="7050" y="5660" width="30" height="60" as="geometry" />
        </mxCell>
        <mxCell id="_879_frUjRLqUSVxQq9t-20" value="&lt;font color=&quot;#e3c800&quot;&gt;Admin&lt;/font&gt;" style="shape=umlActor;verticalLabelPosition=bottom;verticalAlign=top;html=1;outlineConnect=0;fontStyle=1;fillColor=#e3c800;fontColor=#000000;strokeColor=#B09500;" parent="1" vertex="1">
          <mxGeometry x="7738" y="5360" width="30" height="60" as="geometry" />
        </mxCell>
        <mxCell id="_879_frUjRLqUSVxQq9t-21" value="&lt;font color=&quot;#3399ff&quot;&gt;Receptionist&lt;/font&gt;" style="shape=umlActor;verticalLabelPosition=bottom;verticalAlign=top;html=1;outlineConnect=0;fontStyle=1;fillColor=#1ba1e2;fontColor=#ffffff;strokeColor=#006EAF;" parent="1" vertex="1">
          <mxGeometry x="7050" y="5380" width="30" height="60" as="geometry" />
        </mxCell>
        <mxCell id="94ek_NprEjbLttVScLe3-9" value="&lt;font color=&quot;#00994d&quot;&gt;Nurse&lt;/font&gt;" style="shape=umlActor;verticalLabelPosition=bottom;verticalAlign=top;html=1;outlineConnect=0;fontStyle=1;fillColor=#60a917;fontColor=#ffffff;strokeColor=#2D7600;" parent="1" vertex="1">
          <mxGeometry x="7045" y="5540" width="30" height="60" as="geometry" />
        </mxCell>
        <mxCell id="94ek_NprEjbLttVScLe3-11" value="" style="endArrow=classic;html=1;rounded=0;fillColor=#1ba1e2;strokeColor=#006EAF;strokeWidth=2;entryX=0.059;entryY=0.2;entryDx=0;entryDy=0;entryPerimeter=0;" parent="1" target="_879_frUjRLqUSVxQq9t-5" edge="1">
          <mxGeometry width="50" height="50" relative="1" as="geometry">
            <mxPoint x="7100" y="5410" as="sourcePoint" />
            <mxPoint x="7230" y="5380" as="targetPoint" />
            <Array as="points">
              <mxPoint x="7150" y="5380" />
            </Array>
          </mxGeometry>
        </mxCell>
        <mxCell id="94ek_NprEjbLttVScLe3-12" value="" style="endArrow=classic;html=1;rounded=0;entryX=0.108;entryY=0.148;entryDx=0;entryDy=0;fillColor=#1ba1e2;strokeColor=#006EAF;strokeWidth=2;entryPerimeter=0;" parent="1" target="94ek_NprEjbLttVScLe3-5" edge="1">
          <mxGeometry width="50" height="50" relative="1" as="geometry">
            <mxPoint x="7100" y="5410" as="sourcePoint" />
            <mxPoint x="7170" y="5730" as="targetPoint" />
            <Array as="points">
              <mxPoint x="7130" y="5480" />
              <mxPoint x="7130" y="5570" />
              <mxPoint x="7130" y="5730" />
              <mxPoint x="7130" y="5930" />
              <mxPoint x="7200" y="5930" />
            </Array>
          </mxGeometry>
        </mxCell>
        <mxCell id="94ek_NprEjbLttVScLe3-13" value="" style="endArrow=classic;html=1;rounded=0;entryX=0;entryY=0.5;entryDx=0;entryDy=0;strokeWidth=2;fillColor=#1ba1e2;strokeColor=#006EAF;" parent="1" target="_879_frUjRLqUSVxQq9t-8" edge="1">
          <mxGeometry width="50" height="50" relative="1" as="geometry">
            <mxPoint x="7100" y="5410" as="sourcePoint" />
            <mxPoint x="7250" y="5405" as="targetPoint" />
            <Array as="points">
              <mxPoint x="7190" y="5410" />
            </Array>
          </mxGeometry>
        </mxCell>
        <mxCell id="94ek_NprEjbLttVScLe3-14" value="" style="endArrow=classic;html=1;rounded=0;entryX=0;entryY=0.5;entryDx=0;entryDy=0;fillColor=#1ba1e2;strokeColor=#006EAF;strokeWidth=2;" parent="1" target="_879_frUjRLqUSVxQq9t-9" edge="1">
          <mxGeometry width="50" height="50" relative="1" as="geometry">
            <mxPoint x="7100" y="5410" as="sourcePoint" />
            <mxPoint x="7250" y="5475" as="targetPoint" />
            <Array as="points">
              <mxPoint x="7180" y="5450" />
              <mxPoint x="7180" y="5535" />
            </Array>
          </mxGeometry>
        </mxCell>
        <mxCell id="94ek_NprEjbLttVScLe3-15" value="" style="endArrow=classic;html=1;rounded=0;entryX=0;entryY=0.5;entryDx=0;entryDy=0;fillColor=#1ba1e2;strokeColor=#006EAF;strokeWidth=2;" parent="1" edge="1">
          <mxGeometry width="50" height="50" relative="1" as="geometry">
            <mxPoint x="7100" y="5410" as="sourcePoint" />
            <mxPoint x="7240" y="5605" as="targetPoint" />
            <Array as="points">
              <mxPoint x="7140" y="5440" />
              <mxPoint x="7140" y="5490" />
              <mxPoint x="7140" y="5605" />
            </Array>
          </mxGeometry>
        </mxCell>
        <mxCell id="94ek_NprEjbLttVScLe3-30" value="" style="endArrow=classic;html=1;rounded=0;entryX=0;entryY=0.5;entryDx=0;entryDy=0;fillColor=#1ba1e2;strokeColor=#006EAF;strokeWidth=2;" parent="1" target="94ek_NprEjbLttVScLe3-6" edge="1">
          <mxGeometry width="50" height="50" relative="1" as="geometry">
            <mxPoint x="7100" y="5410" as="sourcePoint" />
            <mxPoint x="7250" y="5689.849999999999" as="targetPoint" />
            <Array as="points">
              <mxPoint x="7100" y="5600" />
              <mxPoint x="7100" y="5745" />
            </Array>
          </mxGeometry>
        </mxCell>
        <mxCell id="94ek_NprEjbLttVScLe3-32" value="" style="endArrow=classic;html=1;rounded=0;entryX=0.024;entryY=0.708;entryDx=0;entryDy=0;fillColor=#60a917;strokeColor=#2D7600;strokeWidth=2;entryPerimeter=0;" parent="1" target="_879_frUjRLqUSVxQq9t-5" edge="1">
          <mxGeometry width="50" height="50" relative="1" as="geometry">
            <mxPoint x="7080" y="5580" as="sourcePoint" />
            <mxPoint x="7250" y="5405" as="targetPoint" />
            <Array as="points">
              <mxPoint x="7080" y="5560" />
              <mxPoint x="7110" y="5560" />
              <mxPoint x="7150" y="5560" />
            </Array>
          </mxGeometry>
        </mxCell>
        <mxCell id="94ek_NprEjbLttVScLe3-39" value="" style="endArrow=classic;html=1;rounded=0;entryX=0;entryY=0.5;entryDx=0;entryDy=0;strokeWidth=2;fillColor=#d80073;strokeColor=#A50040;" parent="1" target="_879_frUjRLqUSVxQq9t-5" edge="1">
          <mxGeometry width="50" height="50" relative="1" as="geometry">
            <mxPoint x="7090" y="5700" as="sourcePoint" />
            <mxPoint x="7140" y="5650" as="targetPoint" />
            <Array as="points">
              <mxPoint x="7090" y="5530" />
            </Array>
          </mxGeometry>
        </mxCell>
        <mxCell id="94ek_NprEjbLttVScLe3-40" value="" style="endArrow=classic;html=1;rounded=0;strokeWidth=2;fillColor=#d80073;strokeColor=#A50040;" parent="1" edge="1">
          <mxGeometry width="50" height="50" relative="1" as="geometry">
            <mxPoint x="7090" y="5700" as="sourcePoint" />
            <mxPoint x="7240" y="5951.391389266304" as="targetPoint" />
            <Array as="points">
              <mxPoint x="7090" y="5951" />
            </Array>
          </mxGeometry>
        </mxCell>
        <mxCell id="94ek_NprEjbLttVScLe3-41" value="" style="endArrow=classic;html=1;rounded=0;entryX=0;entryY=0.5;entryDx=0;entryDy=0;strokeWidth=2;fillColor=#d80073;strokeColor=#A50040;" parent="1" target="_879_frUjRLqUSVxQq9t-8" edge="1">
          <mxGeometry width="50" height="50" relative="1" as="geometry">
            <mxPoint x="7090" y="5700" as="sourcePoint" />
            <mxPoint x="7250" y="5405" as="targetPoint" />
          </mxGeometry>
        </mxCell>
        <mxCell id="94ek_NprEjbLttVScLe3-42" value="" style="endArrow=classic;html=1;rounded=0;strokeWidth=2;fillColor=#d80073;strokeColor=#A50040;" parent="1" edge="1">
          <mxGeometry width="50" height="50" relative="1" as="geometry">
            <mxPoint x="7090" y="5700" as="sourcePoint" />
            <mxPoint x="7240" y="5740" as="targetPoint" />
            <Array as="points">
              <mxPoint x="7130" y="5740" />
            </Array>
          </mxGeometry>
        </mxCell>
        <mxCell id="94ek_NprEjbLttVScLe3-49" value="" style="endArrow=classic;html=1;rounded=0;fillColor=#76608a;strokeWidth=2;entryX=1;entryY=0.5;entryDx=0;entryDy=0;strokeColor=#432D57;" parent="1" target="94ek_NprEjbLttVScLe3-8" edge="1">
          <mxGeometry width="50" height="50" relative="1" as="geometry">
            <mxPoint x="7720" y="5810" as="sourcePoint" />
            <mxPoint x="7789.999999999913" y="5720" as="targetPoint" />
          </mxGeometry>
        </mxCell>
        <mxCell id="u3z8EmCiYmt38ChqZdmB-7" value="" style="endArrow=none;html=1;rounded=0;strokeWidth=2;fillColor=#e3c800;strokeColor=#B09500;" parent="1" edge="1">
          <mxGeometry width="50" height="50" relative="1" as="geometry">
            <mxPoint x="7710" y="5920" as="sourcePoint" />
            <mxPoint x="7710" y="5400" as="targetPoint" />
          </mxGeometry>
        </mxCell>
        <mxCell id="u3z8EmCiYmt38ChqZdmB-11" value="" style="endArrow=classic;html=1;rounded=0;entryX=1;entryY=0.5;entryDx=0;entryDy=0;strokeWidth=2;fillColor=#e3c800;strokeColor=#B09500;" parent="1" edge="1">
          <mxGeometry width="50" height="50" relative="1" as="geometry">
            <mxPoint x="7710" y="5400" as="sourcePoint" />
            <mxPoint x="7620" y="5465" as="targetPoint" />
            <Array as="points">
              <mxPoint x="7650" y="5440" />
            </Array>
          </mxGeometry>
        </mxCell>
        <mxCell id="u3z8EmCiYmt38ChqZdmB-13" value="" style="endArrow=classic;html=1;rounded=0;entryX=1.012;entryY=0.407;entryDx=0;entryDy=0;strokeWidth=2;fillColor=#fa6800;strokeColor=#C73500;entryPerimeter=0;" parent="1" edge="1">
          <mxGeometry width="50" height="50" relative="1" as="geometry">
            <mxPoint x="7730" y="5600" as="sourcePoint" />
            <mxPoint x="7632.040000000001" y="5675.35" as="targetPoint" />
            <Array as="points" />
          </mxGeometry>
        </mxCell>
        <mxCell id="u3z8EmCiYmt38ChqZdmB-6" value="" style="endArrow=none;html=1;rounded=0;fillColor=#e3c800;strokeColor=#B09500;strokeWidth=2;" parent="1" edge="1">
          <mxGeometry width="50" height="50" relative="1" as="geometry">
            <mxPoint x="7440" y="5920" as="sourcePoint" />
            <mxPoint x="7710" y="5920" as="targetPoint" />
          </mxGeometry>
        </mxCell>
        <mxCell id="u3z8EmCiYmt38ChqZdmB-16" value="" style="endArrow=none;html=1;rounded=0;strokeWidth=2;fillColor=#76608a;strokeColor=#432D57;" parent="1" edge="1">
          <mxGeometry width="50" height="50" relative="1" as="geometry">
            <mxPoint x="7720" y="5810" as="sourcePoint" />
            <mxPoint x="7720" y="5750" as="targetPoint" />
          </mxGeometry>
        </mxCell>
        <mxCell id="u3z8EmCiYmt38ChqZdmB-18" value="" style="endArrow=classic;html=1;rounded=0;strokeWidth=2;fillColor=#76608a;strokeColor=#432D57;entryX=0.941;entryY=0.2;entryDx=0;entryDy=0;entryPerimeter=0;" parent="1" target="_879_frUjRLqUSVxQq9t-5" edge="1">
          <mxGeometry width="50" height="50" relative="1" as="geometry">
            <mxPoint x="7690" y="5710" as="sourcePoint" />
            <mxPoint x="7420" y="5380" as="targetPoint" />
            <Array as="points">
              <mxPoint x="7690" y="5380" />
            </Array>
          </mxGeometry>
        </mxCell>
        <mxCell id="u3z8EmCiYmt38ChqZdmB-19" value="" style="endArrow=classic;html=1;rounded=0;fillColor=#76608a;strokeColor=#432D57;strokeWidth=2;entryX=1.023;entryY=0.581;entryDx=0;entryDy=0;entryPerimeter=0;" parent="1" target="94ek_NprEjbLttVScLe3-5" edge="1">
          <mxGeometry width="50" height="50" relative="1" as="geometry">
            <mxPoint x="7690" y="5780" as="sourcePoint" />
            <mxPoint x="7650" y="5790" as="targetPoint" />
            <Array as="points">
              <mxPoint x="7690" y="5959" />
            </Array>
          </mxGeometry>
        </mxCell>
        <mxCell id="u3z8EmCiYmt38ChqZdmB-20" value="" style="endArrow=none;html=1;rounded=0;strokeWidth=2;fillColor=#76608a;strokeColor=#432D57;" parent="1" edge="1">
          <mxGeometry width="50" height="50" relative="1" as="geometry">
            <mxPoint x="7720" y="5750" as="sourcePoint" />
            <mxPoint x="7690" y="5710" as="targetPoint" />
          </mxGeometry>
        </mxCell>
        <mxCell id="u3z8EmCiYmt38ChqZdmB-21" value="" style="endArrow=none;html=1;rounded=0;fillColor=#76608a;strokeColor=#432D57;strokeWidth=2;" parent="1" edge="1">
          <mxGeometry width="50" height="50" relative="1" as="geometry">
            <mxPoint x="7690" y="5780" as="sourcePoint" />
            <mxPoint x="7720" y="5750" as="targetPoint" />
          </mxGeometry>
        </mxCell>
        <mxCell id="-_jx0KuunPsmwEeGjPs3-1" value="&lt;font color=&quot;#ff0000&quot;&gt;Lab Tech&lt;/font&gt;" style="shape=umlActor;verticalLabelPosition=bottom;verticalAlign=top;html=1;outlineConnect=0;fillColor=#fa6800;fontColor=#000000;strokeColor=#C73500;" parent="1" vertex="1">
          <mxGeometry x="7740" y="5550" width="30" height="60" as="geometry" />
        </mxCell>
        <mxCell id="-_jx0KuunPsmwEeGjPs3-4" value="" style="endArrow=classic;html=1;rounded=0;entryX=1;entryY=0.5;entryDx=0;entryDy=0;strokeWidth=2;fillColor=#fa6800;strokeColor=#C73500;" parent="1" target="94ek_NprEjbLttVScLe3-2" edge="1">
          <mxGeometry width="50" height="50" relative="1" as="geometry">
            <mxPoint x="7730" y="5600" as="sourcePoint" />
            <mxPoint x="7632" y="5610" as="targetPoint" />
            <Array as="points" />
          </mxGeometry>
        </mxCell>
        <mxCell id="-_jx0KuunPsmwEeGjPs3-5" value="" style="endArrow=classic;html=1;rounded=0;entryX=0.824;entryY=1;entryDx=0;entryDy=0;entryPerimeter=0;strokeWidth=2;fillColor=#fa6800;strokeColor=#C73500;" parent="1" target="_879_frUjRLqUSVxQq9t-5" edge="1">
          <mxGeometry width="50" height="50" relative="1" as="geometry">
            <mxPoint x="7730" y="5600" as="sourcePoint" />
            <mxPoint x="7420" y="5420" as="targetPoint" />
            <Array as="points">
              <mxPoint x="7730" y="5420" />
            </Array>
          </mxGeometry>
        </mxCell>
        <mxCell id="-_jx0KuunPsmwEeGjPs3-9" value="" style="endArrow=classic;html=1;rounded=0;entryX=0;entryY=0.5;entryDx=0;entryDy=0;fillColor=#60a917;strokeColor=#2D7600;strokeWidth=2;" parent="1" target="-_jx0KuunPsmwEeGjPs3-8" edge="1">
          <mxGeometry width="50" height="50" relative="1" as="geometry">
            <mxPoint x="7080" y="5580" as="sourcePoint" />
            <mxPoint x="7250" y="5965" as="targetPoint" />
            <Array as="points">
              <mxPoint x="7080" y="5610" />
              <mxPoint x="7150" y="5610" />
              <mxPoint x="7150" y="5710" />
              <mxPoint x="7150" y="5885" />
            </Array>
          </mxGeometry>
        </mxCell>
        <mxCell id="-_jx0KuunPsmwEeGjPs3-11" value="" style="endArrow=classic;html=1;rounded=0;entryX=0;entryY=0.5;entryDx=0;entryDy=0;fillColor=#1ba1e2;strokeColor=#006EAF;strokeWidth=2;" parent="1" target="-_jx0KuunPsmwEeGjPs3-10" edge="1">
          <mxGeometry width="50" height="50" relative="1" as="geometry">
            <mxPoint x="7100" y="5410" as="sourcePoint" />
            <mxPoint x="7250" y="5689.849999999999" as="targetPoint" />
            <Array as="points">
              <mxPoint x="7170" y="5420" />
              <mxPoint x="7170" y="5580" />
              <mxPoint x="7170" y="5815" />
            </Array>
          </mxGeometry>
        </mxCell>
        <mxCell id="-_jx0KuunPsmwEeGjPs3-15" value="" style="endArrow=classic;html=1;rounded=0;strokeWidth=2;fillColor=#d80073;strokeColor=#A50040;entryX=0;entryY=0.5;entryDx=0;entryDy=0;" parent="1" target="-_jx0KuunPsmwEeGjPs3-12" edge="1">
          <mxGeometry width="50" height="50" relative="1" as="geometry">
            <mxPoint x="7090" y="5700" as="sourcePoint" />
            <mxPoint x="7250" y="5750" as="targetPoint" />
            <Array as="points">
              <mxPoint x="7150" y="5680" />
            </Array>
          </mxGeometry>
        </mxCell>
        <mxCell id="-_jx0KuunPsmwEeGjPs3-16" value="" style="endArrow=classic;html=1;rounded=0;entryX=0.993;entryY=0.324;entryDx=0;entryDy=0;strokeWidth=2;fillColor=#fa6800;strokeColor=#C73500;entryPerimeter=0;" parent="1" target="-_jx0KuunPsmwEeGjPs3-12" edge="1">
          <mxGeometry width="50" height="50" relative="1" as="geometry">
            <mxPoint x="7730" y="5600" as="sourcePoint" />
            <mxPoint x="7642" y="5685" as="targetPoint" />
            <Array as="points">
              <mxPoint x="7660" y="5640" />
              <mxPoint x="7580" y="5640" />
              <mxPoint x="7470" y="5640" />
            </Array>
          </mxGeometry>
        </mxCell>
        <mxCell id="-_jx0KuunPsmwEeGjPs3-17" value="" style="endArrow=classic;html=1;rounded=0;strokeWidth=2;fillColor=#d80073;strokeColor=#A50040;entryX=0.059;entryY=0.8;entryDx=0;entryDy=0;entryPerimeter=0;" parent="1" target="u3z8EmCiYmt38ChqZdmB-4" edge="1">
          <mxGeometry width="50" height="50" relative="1" as="geometry">
            <mxPoint x="7090" y="5700" as="sourcePoint" />
            <mxPoint x="7250" y="5685" as="targetPoint" />
            <Array as="points">
              <mxPoint x="7170" y="5640" />
              <mxPoint x="7260" y="5640" />
              <mxPoint x="7360" y="5640" />
              <mxPoint x="7400" y="5640" />
              <mxPoint x="7440" y="5630" />
            </Array>
          </mxGeometry>
        </mxCell>
      </root>
    </mxGraphModel>
  </diagram>
  <diagram id="PwfFjXkcSG1ZRAYmPYpi" name="Page-2">
    <mxGraphModel dx="1219" dy="713" grid="1" gridSize="10" guides="1" tooltips="1" connect="1" arrows="1" fold="1" page="1" pageScale="1" pageWidth="15000" pageHeight="15000" math="0" shadow="0">
      <root>
        <mxCell id="0" />
        <mxCell id="1" parent="0" />
        <mxCell id="3hZ8_KgaP1_ogNREOE0S-1" value="&lt;h1 style=&quot;&quot; class=&quot;template-name-title&quot;&gt;&lt;font style=&quot;font-size: 19px;&quot;&gt;Hospital&amp;nbsp; Management System&lt;/font&gt;&lt;/h1&gt;" style="swimlane;whiteSpace=wrap;html=1;fontStyle=1;fillColor=#b0e3e6;strokeColor=#0e8088;strokeWidth=2;" parent="1" vertex="1">
          <mxGeometry x="7210" y="5330" width="930" height="800" as="geometry" />
        </mxCell>
        <mxCell id="3hZ8_KgaP1_ogNREOE0S-2" value="Login/Loout" style="ellipse;whiteSpace=wrap;html=1;fontStyle=1" parent="3hZ8_KgaP1_ogNREOE0S-1" vertex="1">
          <mxGeometry x="360" y="330" width="170" height="50" as="geometry" />
        </mxCell>
        <mxCell id="3hZ8_KgaP1_ogNREOE0S-3" value="Patient Registration" style="ellipse;whiteSpace=wrap;html=1;fontStyle=1" parent="3hZ8_KgaP1_ogNREOE0S-1" vertex="1">
          <mxGeometry x="30" y="110" width="170" height="50" as="geometry" />
        </mxCell>
        <mxCell id="3hZ8_KgaP1_ogNREOE0S-4" value="View Doctor Schedule" style="ellipse;whiteSpace=wrap;html=1;fontStyle=1" parent="3hZ8_KgaP1_ogNREOE0S-1" vertex="1">
          <mxGeometry x="30" y="180" width="170" height="50" as="geometry" />
        </mxCell>
        <mxCell id="3hZ8_KgaP1_ogNREOE0S-5" value="&lt;span&gt;Schedule Appointment:&lt;/span&gt;" style="ellipse;whiteSpace=wrap;html=1;fontStyle=1" parent="3hZ8_KgaP1_ogNREOE0S-1" vertex="1">
          <mxGeometry x="30" y="250" width="170" height="50" as="geometry" />
        </mxCell>
        <mxCell id="3hZ8_KgaP1_ogNREOE0S-7" value="&lt;strong&gt;View Appointment&lt;/strong&gt;" style="ellipse;whiteSpace=wrap;html=1;fontStyle=1" parent="3hZ8_KgaP1_ogNREOE0S-1" vertex="1">
          <mxGeometry x="30" y="390" width="170" height="50" as="geometry" />
        </mxCell>
        <mxCell id="3hZ8_KgaP1_ogNREOE0S-8" value="Manage Medical stock" style="ellipse;whiteSpace=wrap;html=1;fontStyle=1" parent="3hZ8_KgaP1_ogNREOE0S-1" vertex="1">
          <mxGeometry x="670" y="280" width="170" height="50" as="geometry" />
        </mxCell>
        <mxCell id="3hZ8_KgaP1_ogNREOE0S-9" value="Generate Bill" style="ellipse;whiteSpace=wrap;html=1;fontStyle=1" parent="3hZ8_KgaP1_ogNREOE0S-1" vertex="1">
          <mxGeometry x="670" y="360" width="170" height="50" as="geometry" />
        </mxCell>
        <mxCell id="3hZ8_KgaP1_ogNREOE0S-12" value="Check payment Transcation &amp;amp; detail" style="ellipse;whiteSpace=wrap;html=1;fontStyle=1" parent="3hZ8_KgaP1_ogNREOE0S-1" vertex="1">
          <mxGeometry x="670" y="110" width="170" height="50" as="geometry" />
        </mxCell>
        <mxCell id="3hZ8_KgaP1_ogNREOE0S-13" value="System Maintenance" style="ellipse;whiteSpace=wrap;html=1;fontStyle=1" parent="3hZ8_KgaP1_ogNREOE0S-1" vertex="1">
          <mxGeometry x="670" y="180" width="170" height="50" as="geometry" />
        </mxCell>
        <mxCell id="3hZ8_KgaP1_ogNREOE0S-14" value="View Prescribe Test" style="ellipse;whiteSpace=wrap;html=1;fontStyle=1" parent="3hZ8_KgaP1_ogNREOE0S-1" vertex="1">
          <mxGeometry x="670" y="470" width="170" height="50" as="geometry" />
        </mxCell>
        <mxCell id="3hZ8_KgaP1_ogNREOE0S-18" value="Upload Lab Report" style="ellipse;whiteSpace=wrap;html=1;fontStyle=1" parent="3hZ8_KgaP1_ogNREOE0S-1" vertex="1">
          <mxGeometry x="670" y="540" width="170" height="50" as="geometry" />
        </mxCell>
        <mxCell id="3hZ8_KgaP1_ogNREOE0S-19" value="view Patient Records&amp;nbsp;" style="ellipse;whiteSpace=wrap;html=1;fontStyle=1" parent="3hZ8_KgaP1_ogNREOE0S-1" vertex="1">
          <mxGeometry x="30" y="540" width="170" height="50" as="geometry" />
        </mxCell>
        <mxCell id="3hZ8_KgaP1_ogNREOE0S-21" value="Manage Patient Vitals" style="ellipse;whiteSpace=wrap;html=1;fontStyle=1" parent="3hZ8_KgaP1_ogNREOE0S-1" vertex="1">
          <mxGeometry x="360" y="710" width="170" height="50" as="geometry" />
        </mxCell>
        <mxCell id="3hZ8_KgaP1_ogNREOE0S-22" value="File medi claim Report" style="ellipse;whiteSpace=wrap;html=1;fontStyle=1" parent="3hZ8_KgaP1_ogNREOE0S-1" vertex="1">
          <mxGeometry x="30" y="460" width="170" height="50" as="geometry" />
        </mxCell>
        <mxCell id="3hZ8_KgaP1_ogNREOE0S-23" value="Suggest / Do Lab Test" style="ellipse;whiteSpace=wrap;html=1;fontStyle=1" parent="3hZ8_KgaP1_ogNREOE0S-1" vertex="1">
          <mxGeometry x="360" y="540" width="170" height="50" as="geometry" />
        </mxCell>
        <mxCell id="3hZ8_KgaP1_ogNREOE0S-25" style="edgeStyle=orthogonalEdgeStyle;rounded=0;orthogonalLoop=1;jettySize=auto;html=1;exitX=0.5;exitY=1;exitDx=0;exitDy=0;" parent="3hZ8_KgaP1_ogNREOE0S-1" source="3hZ8_KgaP1_ogNREOE0S-9" target="3hZ8_KgaP1_ogNREOE0S-9" edge="1">
          <mxGeometry relative="1" as="geometry" />
        </mxCell>
        <mxCell id="3hZ8_KgaP1_ogNREOE0S-26" value="&lt;strong&gt;Billing &amp;amp; insurance&lt;/strong&gt;" style="ellipse;whiteSpace=wrap;html=1;fontStyle=1" parent="3hZ8_KgaP1_ogNREOE0S-1" vertex="1">
          <mxGeometry x="30" y="320" width="170" height="50" as="geometry" />
        </mxCell>
        <mxCell id="admVzKbBOwezkFXtxl4--1" value="&lt;font color=&quot;#3399ff&quot;&gt;Receptionist&lt;/font&gt;" style="shape=umlActor;verticalLabelPosition=bottom;verticalAlign=top;html=1;outlineConnect=0;fontStyle=1;fillColor=#1ba1e2;fontColor=#ffffff;strokeColor=#006EAF;" parent="1" vertex="1">
          <mxGeometry x="7040" y="5430" width="30" height="60" as="geometry" />
        </mxCell>
        <mxCell id="EILtwsFyxK4V8zAlt2We-1" value="&lt;font color=&quot;#00994d&quot;&gt;Nurse&lt;/font&gt;" style="shape=umlActor;verticalLabelPosition=bottom;verticalAlign=top;html=1;outlineConnect=0;fontStyle=1;fillColor=#60a917;fontColor=#ffffff;strokeColor=#2D7600;" parent="1" vertex="1">
          <mxGeometry x="7040" y="5650" width="30" height="60" as="geometry" />
        </mxCell>
        <mxCell id="NW1HNBPhJFyNwQH6d806-1" value="&lt;font color=&quot;#cc0000&quot;&gt;Doctor&lt;/font&gt;" style="shape=umlActor;verticalLabelPosition=bottom;verticalAlign=top;html=1;outlineConnect=0;fontStyle=1;fillColor=#a20025;fontColor=#ffffff;strokeColor=#6F0000;" parent="1" vertex="1">
          <mxGeometry x="7040" y="5840" width="30" height="60" as="geometry" />
        </mxCell>
        <mxCell id="vD_byf5wkqdlMiKvUEkY-1" value="&lt;font color=&quot;#e3c800&quot;&gt;Admin&lt;/font&gt;" style="shape=umlActor;verticalLabelPosition=bottom;verticalAlign=top;html=1;outlineConnect=0;fontStyle=1;fillColor=#e3c800;fontColor=#000000;strokeColor=#B09500;" parent="1" vertex="1">
          <mxGeometry x="8240" y="5460" width="30" height="60" as="geometry" />
        </mxCell>
        <mxCell id="5VM9hvicja5Lj5dGvG3w-1" value="&lt;font color=&quot;#ff0000&quot;&gt;Lab Tech&lt;/font&gt;" style="shape=umlActor;verticalLabelPosition=bottom;verticalAlign=top;html=1;outlineConnect=0;fillColor=#fa6800;fontColor=#000000;strokeColor=#C73500;" parent="1" vertex="1">
          <mxGeometry x="8240" y="5840" width="30" height="60" as="geometry" />
        </mxCell>
        <mxCell id="oy5WOqWMbZs-p-1WA-Lo-1" value="&lt;font color=&quot;#b266ff&quot;&gt;Pharmascist&lt;br&gt;&lt;/font&gt;" style="shape=umlActor;verticalLabelPosition=bottom;verticalAlign=top;html=1;outlineConnect=0;fontStyle=1;fillColor=#76608a;fontColor=#ffffff;strokeColor=#432D57;" parent="1" vertex="1">
          <mxGeometry x="8240" y="5650" width="30" height="60" as="geometry" />
        </mxCell>
      </root>
    </mxGraphModel>
  </diagram>
</mxfile>
